<svg id="arrow-left" xmlns="http://www.w3.org/2000/svg" width="40.928" height="23.879" viewBox="0 0 40.928 23.879">
  <path id="Path_723" data-name="Path 723" d="M5,10.624a1.705,1.705,0,0,0,0,2.415l9.026,9.023L5,31.087A1.707,1.707,0,0,0,7.413,33.5L17.645,23.271a1.705,1.705,0,0,0,0-2.415L7.413,10.624a1.705,1.705,0,0,0-2.415,0Z" transform="translate(22.783 -10.123)" fill="#eaeaea" fill-rule="evenodd"/>
  <path id="Path_724" data-name="Path 724" d="M44.846,18.58a1.705,1.705,0,0,0-1.705-1.705H7.33a1.705,1.705,0,0,0,0,3.41H43.14A1.705,1.705,0,0,0,44.846,18.58Z" transform="translate(-5.625 -6.641)" fill="#eaeaea" fill-rule="evenodd"/>
</svg>
