<svg id="arrow-left" xmlns="http://www.w3.org/2000/svg" width="15.008" height="8.756" viewBox="0 0 15.008 8.756">
  <path id="Path_723" data-name="Path 723" d="M4.682,18.7a.625.625,0,0,1,0-.885L7.992,14.5,4.682,11.192a.626.626,0,0,1,.885-.885l3.752,3.752a.625.625,0,0,1,0,.885L5.567,18.7a.625.625,0,0,1-.885,0Z" transform="translate(5.505 -10.123)" fill="#8d9ab2" fill-rule="evenodd"/>
  <path id="Path_724" data-name="Path 724" d="M20.007,17.5a.625.625,0,0,1-.625.625H6.25a.625.625,0,0,1,0-1.251H19.382A.625.625,0,0,1,20.007,17.5Z" transform="translate(-5.625 -13.122)" fill="#8d9ab2" fill-rule="evenodd"/>
</svg>
