<svg xmlns="http://www.w3.org/2000/svg" width="29.062" height="16.956" viewBox="0 0 29.062 16.956">
  <g id="arrow-left" transform="translate(0)">
    <path id="Path_723" data-name="Path 723" d="M4.855,10.479a1.211,1.211,0,0,0,0,1.715L11.264,18.6,4.854,25.01a1.212,1.212,0,0,0,1.715,1.715l7.265-7.265a1.211,1.211,0,0,0,0-1.715L6.568,10.479a1.211,1.211,0,0,0-1.715,0Z" transform="translate(14.873 -10.123)" fill="#8d9ab2" fill-rule="evenodd"/>
    <path id="Path_724" data-name="Path 724" d="M33.475,18.086a1.211,1.211,0,0,0-1.211-1.211H6.836a1.211,1.211,0,0,0,0,2.422H32.264A1.211,1.211,0,0,0,33.475,18.086Z" transform="translate(-5.625 -9.608)" fill="#8d9ab2" fill-rule="evenodd"/>
  </g>
</svg>
