<svg id="arrow-left-short" xmlns="http://www.w3.org/2000/svg" width="25.529" height="22.341" viewBox="0 0 25.529 22.341">
  <g id="arrow-left-short-2" data-name="arrow-left-short" transform="translate(34.527 32.464) rotate(180)" opacity="0.7">
    <path id="Path_726" data-name="Path 726" d="M21.3,10.592a1.6,1.6,0,0,1,0,2.259l-8.446,8.442L21.3,29.737A1.6,1.6,0,0,1,19.04,32L9.467,22.424a1.6,1.6,0,0,1,0-2.259l9.572-9.572a1.6,1.6,0,0,1,2.259,0Z" transform="translate(0)" fill="#00ab7c" fill-rule="evenodd"/>
    <path id="Path_727" data-name="Path 727" d="M10.125,18.47a1.6,1.6,0,0,1,1.6-1.6h20.74a1.6,1.6,0,1,1,0,3.191H11.72A1.6,1.6,0,0,1,10.125,18.47Z" transform="translate(0.471 2.823)" fill="#00ab7c" fill-rule="evenodd"/>
  </g>
</svg>
