<svg xmlns="http://www.w3.org/2000/svg" width="41.793" height="41.796" viewBox="0 0 41.793 41.796">
  <path id="messenger" d="M0,20.269C0,8.619,9.125,0,20.9,0s20.9,8.619,20.9,20.269S32.667,40.537,20.9,40.537a22.8,22.8,0,0,1-6.042-.8,1.672,1.672,0,0,0-1.114.087L9.577,41.652a1.672,1.672,0,0,1-2.351-1.48L7.1,36.445a1.689,1.689,0,0,0-.557-1.184A19.833,19.833,0,0,1,0,20.269Zm14.488-3.813L8.358,26.206a.981.981,0,0,0,1.428,1.306l6.6-5a1.229,1.229,0,0,1,1.515,0l4.876,3.657a3.143,3.143,0,0,0,4.527-.836l6.129-9.751a.982.982,0,0,0-1.428-1.306l-6.6,5a1.2,1.2,0,0,1-1.5,0l-4.876-3.657a3.134,3.134,0,0,0-4.545.836Z" transform="translate(0.002)"/>
</svg>
