<svg xmlns="http://www.w3.org/2000/svg" width="6.613" height="7.557" viewBox="0 0 6.613 7.557">
  <g id="arrow-left-short" transform="translate(-10.124 16.556) rotate(-90)">
    <path id="Path_726" data-name="Path 726" d="M12.64,10.262a.472.472,0,0,1,0,.669l-2.5,2.5,2.5,2.5a.473.473,0,0,1-.669.669L9.137,13.765a.472.472,0,0,1,0-.669l2.834-2.834a.472.472,0,0,1,.669,0Z" fill="#8d9ab2" fill-rule="evenodd"/>
    <path id="Path_727" data-name="Path 727" d="M10.125,17.347a.472.472,0,0,1,.472-.472h6.14a.472.472,0,1,1,0,.945H10.6A.472.472,0,0,1,10.125,17.347Z" transform="translate(-0.654 -3.917)" fill="#8d9ab2" fill-rule="evenodd"/>
  </g>
</svg>
